# xmcd
#
# Track frame offsets: 
#        183
#        13780
#        24883
#        36803
#        50308
#        63218
#        76298
#        90008
#        101208
#        113920
#        127140
#        139338
#        152353
#        164373
#        177025
#        187428
#        201150
#        214073
#        230433
#        245063
#        262995
#        278175
#        293923
#        305250
#        318450
#        333500
#
# Disc length: 4643 seconds
#
# Revision: 0
# Processed by: cddbd v1.5.2PL0 Copyright (c) Steve Scherf et al.
# Submitted via: ExactAudioCopyFreeDBPlugin 1.0
#
DISCID=7012211a
DTITLE=Various Artist - Hitsville USA:  The Motown Singles Collection
DTITLE=s, 1959 - 1992 [box sets]
DYEAR=1992
DGENRE=Rhythm and Blues
TTITLE0=The Four Tops - Reach Out I'll Be There
TTITLE1=The Temptations - (I Know) I'm Losing You
TTITLE2=The Four Tops - Standing in the Shadows of Love
TTITLE3=Marvin Gaye and Kim Weston - It Takes Two
TTITLE4=The Marvelettes - The Hunter Gets Captured By the Game
TTITLE5=Martha Reeves and The Vandellas - Jimmy Mack
TTITLE6=The Four Tops - Bernadette
TTITLE7=Marvin Gaye and Tammi Terrell - Ain't No Mountain High Enough
TTITLE8=Smokey Robinson and The Miracles - More Love
TTITLE9=Gladys Knight and The Pips - I Heard it Through the Grapevine
TTITLE10=Smokey Robinson and The Miracles - I Second That Emotion
TTITLE11=The Temptations - I Wish it Would Rain
TTITLE12=Rita Wright - I Can't Give Back the Love I Feel for You
TTITLE13=Bobby Taylor and The Vancouvers - Does Your Mama Know About Me
TTITLE14=Marvin Gaye and Tammi Terrell - Ain't Nothing Like the Real T
TTITLE14=hing
TTITLE15=Diana Ross and The Supremes - Love Child
TTITLE16=Stevie Wonder - For Once in My Life
TTITLE17=The Temptations - Cloud Nine
TTITLE18=Marvin Gaye - I Heard it Through the Grapevine
TTITLE19=Smokey Robinson and The Miracles - Baby, Baby Don't Cry
TTITLE20=Edwin Starr - Twenty-Five Miles
TTITLE21=David Ruffin - My Whole World Ended (The Moment You Left Me)
TTITLE22=Junior Walker and The All Stars - What Does It Take (To Win You
TTITLE22=r Love)
TTITLE23=The Temptations - I Can't Get Next to You
TTITLE24=The Originals - Baby I'm for Real
TTITLE25=The Supremes - Up the Ladder to the Roof
EXTD=
EXTT0=
EXTT1=
EXTT2=
EXTT3=
EXTT4=
EXTT5=
EXTT6=
EXTT7=
EXTT8=
EXTT9=
EXTT10=
EXTT11=
EXTT12=
EXTT13=
EXTT14=
EXTT15=
EXTT16=
EXTT17=
EXTT18=
EXTT19=
EXTT20=
EXTT21=
EXTT22=
EXTT23=
EXTT24=
EXTT25=
PLAYORDER=
